# xmcd
# 
# Track frame offsets:
#     150
#     20200
#     38800
#     63728
#     84190
#     107485
#     127078
#     151803
#     170928
#     190423
#     212610
#     233430
#     262913
#     283403
# 
# Disc length: 4161
# 
# Revision: 16
# Processed by: cddbd v1.5.2PL0 Copyright (c) Steve Scherf et al.
# Submitted via: fre:ac v1.0.17
# 
DISCID=c6103f0e
DTITLE=Styx - Classics Volume 15
DYEAR=1987
DGENRE=Progressive Rock
TTITLE0=Babe
TTITLE1=Blue Collar Man (Long Nights)
TTITLE2=Come Sail Away
TTITLE3=Crystal Ball
TTITLE4=Fooling Yourself (The Angry Young Man)
TTITLE5=Light Up
TTITLE6=Mr. Roboto
TTITLE7=Renegade
TTITLE8=The Best Of Times
TTITLE9=Don't Let It End
TTITLE10=The Grand Illusion
TTITLE11=Suite Madame Blue
TTITLE12=Too Much Time On My Hands
TTITLE13=Miss America
EXTD=Record number: A&M Records CD 2513\ncorrected\nmore info - MillenniumMusicProjectFormat - SYNTAX=SongTitle{Subtitle}[miscInfo](Lyricist;Composer;Date,Artist,Location,State,Country) YEAR: 1987
EXTT0=
EXTT1=
EXTT2=
EXTT3=
EXTT4=
EXTT5=
EXTT6=
EXTT7=
EXTT8=
EXTT9=
EXTT10=
EXTT11=
EXTT12=
EXTT13=
PLAYORDER=
